<svg xmlns="http://www.w3.org/2000/svg" xmlns:xlink="http://www.w3.org/1999/xlink" viewBox="0 0 357.03 91.85"><defs><style>.cls-1{fill:#0003ff;}.cls-2{fill:#ff2900;}.cls-3{fill:#6fbc43;}.cls-4{fill:#c8c8c8;}.cls-5{fill:#ecf243;}.cls-6{fill:url(#linear-gradient);}.cls-7{fill:url(#linear-gradient-2);}.cls-8{fill:url(#linear-gradient-3);}.cls-9{fill:url(#linear-gradient-4);}.cls-10{fill:url(#linear-gradient-5);}.cls-11{fill:url(#linear-gradient-6);}</style><linearGradient id="linear-gradient" x1="115.52" y1="37.35" x2="359.78" y2="120.26" gradientUnits="userSpaceOnUse"><stop offset="0" stop-color="#7ed020"/><stop offset="1" stop-color="#1bbf86"/></linearGradient><linearGradient id="linear-gradient-2" x1="119.27" y1="26.3" x2="363.53" y2="109.21" xlink:href="#linear-gradient"/><linearGradient id="linear-gradient-3" x1="123.19" y1="14.75" x2="367.45" y2="97.66" xlink:href="#linear-gradient"/><linearGradient id="linear-gradient-4" x1="126.9" y1="3.84" x2="371.16" y2="86.75" xlink:href="#linear-gradient"/><linearGradient id="linear-gradient-5" x1="131.28" y1="-9.07" x2="375.54" y2="73.85" xlink:href="#linear-gradient"/><linearGradient id="linear-gradient-6" x1="135.19" y1="-20.6" x2="379.45" y2="62.32" xlink:href="#linear-gradient"/></defs><title>logo</title><g id="Layer_2" data-name="Layer 2"><g id="Layer_1-2" data-name="Layer 1"><circle class="cls-1" cx="62.58" cy="75.95" r="3.68"/><circle class="cls-2" cx="77.5" cy="65.29" r="3.68"/><circle class="cls-3" cx="62.39" cy="47.86" r="3.68"/><circle class="cls-4" cx="75.76" cy="25.96" r="3.68"/><circle class="cls-5" cx="64.13" cy="12.98" r="3.68"/><path d="M35.65,0a13.4,13.4,0,0,1,6.12,2.88,13.48,13.48,0,0,1,5,10.3c.08,10.81,0,21.63,0,32.44q0,16.56,0,33.12A12.44,12.44,0,0,1,40.35,90.2a12.31,12.31,0,0,1-17.67-6.4,41.29,41.29,0,0,1-1.19-4.95c-5.56.67-10.18-1.26-13-6.34s-2.15-10,1.3-14.71a2.3,2.3,0,0,0-.41-.24A12.51,12.51,0,0,1,.15,47,1.59,1.59,0,0,0,0,46.69q0-1.55,0-3.1A3.4,3.4,0,0,0,.17,43a12,12,0,0,1,3.25-6.67,13.47,13.47,0,0,1,6.44-3.68C6.36,28.08,5.56,23.12,8.34,18s7.41-7.19,13.24-6.5c0-.15.07-.27.09-.39a12,12,0,0,1,6.18-9.51A27,27,0,0,1,32.36,0ZM44,46.38q0-16.13,0-32.26a12.24,12.24,0,0,0-1.12-5.35c-2-4.32-6.42-6.66-10.67-5.67-5.78,1.35-9.26,7.78-7,13.12A9.08,9.08,0,0,0,33.43,22c1.16.08,1.81.66,1.75,1.5s-.75,1.32-1.92,1.3A12.3,12.3,0,0,1,22.13,16.2c-.57-1.87-.63-1.91-2.6-2a6.24,6.24,0,0,0-.87,0,10,10,0,0,0-8,14.44,8.05,8.05,0,0,0,5.14,4.5,11.43,11.43,0,0,1,6.82,5.4,11.8,11.8,0,0,1,1.75,6.36A1.36,1.36,0,0,1,23,46.4a1.39,1.39,0,0,1-1.45-1.28c0-.25,0-.52-.08-.77a20.8,20.8,0,0,0-1-3.79A9.13,9.13,0,0,0,8.13,36.4a10,10,0,0,0-5,11.18,9.75,9.75,0,0,0,9.93,7.58c.79,0,1.43.13,1.68,1a1.53,1.53,0,0,1-.8,1.79,9.75,9.75,0,0,0-4.28,9,9.36,9.36,0,0,0,12.73,8.29c3.75-1.54,5.68-4.51,6-8.55.09-1.24.57-1.79,1.47-1.76s1.4.68,1.33,2a12.15,12.15,0,0,1-5.45,9.77,2.51,2.51,0,0,0-1.17,2.17C24.41,86,31.65,91.19,38.3,88,42.14,86.2,44,83,44,78.74Q44,62.56,44,46.38Z"/><path d="M96.51,44.89c-.29-6.45-3.77-10.32-9.78-12.22,3.67-5,4.31-10.35.85-15.67-3-4.54-7.38-6.21-12.78-5.44-.06-.3-.12-.58-.18-.86A12.57,12.57,0,0,0,66.69.83,25,25,0,0,0,63.74,0H61a13.07,13.07,0,0,0-5.48,2.26A14,14,0,0,0,49.75,14q0,24.55,0,49.1c0,5.46-.06,10.91,0,16.37a12.48,12.48,0,0,0,24.82,1.72c.13-.78.18-1.58.27-2.4,5.83.7,10.42-1.27,13.26-6.39s2-10-1.35-14.66A12.93,12.93,0,0,0,96.51,44.89ZM59.34,76a2.94,2.94,0,0,1,5.88,0,2.94,2.94,0,1,1-5.88,0ZM74.46,65.35a2.94,2.94,0,0,1,5.88,0,2.94,2.94,0,1,1-5.88,0Zm9.17-10.19c-.79,0-1.53,0-1.83.89s.27,1.46,1,2a10,10,0,0,1-2.58,17.63c-.41.15-.86.22-1.46.36,0-1.66,0-3.14,0-4.62,0-.25.43-.56.72-.7a5.64,5.64,0,0,0,3.54-5,5.49,5.49,0,0,0-2.8-5.19,5.72,5.72,0,0,0-8,2.25,5.65,5.65,0,0,0,2.85,7.91,1.11,1.11,0,0,1,.84,1.26c0,1.32,0,2.64,0,4.11-1-.19-2-.19-2.71-1.09a1.35,1.35,0,0,0-2-.23,1.19,1.19,0,0,0-.27,1.8c1.15,1.17,1.09,2.53.92,4a9.85,9.85,0,0,1-7.27,8.19c-.25.06-.5.08-.89.13,0-2.28,0-4.5,0-6.72,0-.24.46-.53.77-.68a5.73,5.73,0,0,0-4.24-10.65,5.66,5.66,0,0,0-3.71,4.88,5.44,5.44,0,0,0,3.36,5.67,1.32,1.32,0,0,1,.92,1.51c0,1.9,0,3.81,0,5.71a1.12,1.12,0,0,1-.1.27A8.94,8.94,0,0,1,55.38,86a9.86,9.86,0,0,1-2.79-7.12q0-14.34,0-28.67c0-.16,0-.31.05-.61,1.27,0,2.52,0,3.76,0,.2,0,.44.4.55.66a5.78,5.78,0,0,0,6.75,3.39A5.74,5.74,0,1,0,57,45.95a.93.93,0,0,1-1,.72c-1.06,0-2.12,0-3.26,0V27.18c.33,0,.64-.05.95-.05,5.26,0,10.53,0,15.79,0a1.07,1.07,0,0,1,1.22.77,5.64,5.64,0,0,0,6.83,3.31,5.8,5.8,0,0,0,4.08-6.45A5.74,5.74,0,0,0,75.68,20a5.47,5.47,0,0,0-5.09,3.56,1,1,0,0,1-1.12.77c-1.25,0-2.5,0-3.86,0,0-1.88,0-3.65,0-5.41,0-.21.44-.48.73-.61a5.69,5.69,0,0,0,3.53-5.33,5.62,5.62,0,0,0-3.61-5.27,5.73,5.73,0,0,0-7.49,3.28,5.61,5.61,0,0,0,3.05,7.24,1.21,1.21,0,0,1,.94,1.39c-.07,1.51,0,3,0,4.63H52.68a2.39,2.39,0,0,1-.09-.47c0-3.78-.12-7.57.16-11.32A10.12,10.12,0,0,1,58.8,3.67c4.23-2,9.53-.08,11.88,4.19A10.24,10.24,0,0,1,72,13.15c0,1.4.78,2,2.11,1.61a9.58,9.58,0,0,1,11.84,4.91,10,10,0,0,1-3.2,12.66,4.46,4.46,0,0,1-1.4.6,12.4,12.4,0,0,0-9.14,11.65q0,1.72,1.29,1.82c.86.07,1.44-.59,1.52-1.74.28-4.12,2.24-7.14,6.1-8.64A9.13,9.13,0,0,1,93,41.44,9.93,9.93,0,0,1,83.63,55.16ZM59.34,48.1a2.94,2.94,0,0,1,5.88,0,2.94,2.94,0,1,1-5.88,0ZM72.72,25.7a3.12,3.12,0,0,1,3.11-3.16A3.22,3.22,0,0,1,79,25.7a3.13,3.13,0,0,1-3.14,3A3.07,3.07,0,0,1,72.72,25.7ZM64,16a3.15,3.15,0,0,1-3-3.12,3.1,3.1,0,0,1,6.2,0A3.15,3.15,0,0,1,64,16Z"/><path class="cls-6" d="M133.52,57.39,130,66H119.66L139,21.55h10.36l19,44.49H157.6l-3.5-8.64ZM143.87,32l-7.05,17.29h14Z"/><path class="cls-7" d="M202.73,51.93H178.19A8.74,8.74,0,0,0,187,58.79a12.12,12.12,0,0,0,8.64-3.62l5.15,5.21c-3.43,3.81-8.45,6-14.62,6-10.93,0-17.86-7-17.86-17.35,0-10.55,7.18-17.54,17.6-17.54C198,31.53,203.55,39.47,202.73,51.93Zm-9.15-5.78c-.13-4.51-3.05-7.44-7.56-7.44-4.32,0-7.25,2.92-8,7.44Z"/><path class="cls-8" d="M240.67,51.93H216.14A8.74,8.74,0,0,0,225,58.79a12.12,12.12,0,0,0,8.64-3.62l5.15,5.21c-3.43,3.81-8.45,6-14.62,6-10.93,0-17.86-7-17.86-17.35,0-10.55,7.18-17.54,17.6-17.54C235.9,31.53,241.49,39.47,240.67,51.93Zm-9.15-5.78c-.13-4.51-3.05-7.44-7.56-7.44-4.32,0-7.25,2.92-8,7.44Z"/><path class="cls-9" d="M281.28,44.55V66h-9.79V47.41c0-4.32-2.54-7-6.74-7-4.89.06-7.82,3.75-7.82,8.77V66h-9.79V31.84h9.79v6c2.41-4.26,6.48-6.29,11.82-6.36C276.38,31.46,281.28,36.55,281.28,44.55Z"/><path class="cls-10" d="M309.56,62c-2.29,2.86-6,4.45-10.74,4.45-7.31,0-11.76-4.45-11.76-10.68,0-6.42,4.64-10.23,13-10.3h9.41v-.64c0-3.62-2.41-5.72-7.12-5.72a21.65,21.65,0,0,0-10.17,3l-3.05-6.74a32.06,32.06,0,0,1,15.44-3.94c9.15,0,14.43,4.58,14.49,12.27L319.16,66h-9.6Zm-.06-7.69V51.29h-7.69c-3.75,0-5.59,1.14-5.59,3.88s2,4.32,5.34,4.32C305.68,59.49,308.92,57.27,309.5,54.34Z"/><path class="cls-11" d="M347.44,62c-2.29,2.86-6,4.45-10.74,4.45-7.31,0-11.76-4.45-11.76-10.68,0-6.42,4.64-10.23,13-10.3h9.41v-.64c0-3.62-2.41-5.72-7.12-5.72a21.65,21.65,0,0,0-10.17,3L327,35.4a32.06,32.06,0,0,1,15.44-3.94c9.15,0,14.43,4.58,14.49,12.27L357,66h-9.6Zm-.06-7.69V51.29h-7.69c-3.75,0-5.59,1.14-5.59,3.88s2,4.32,5.34,4.32C343.56,59.49,346.8,57.27,347.37,54.34Z"/></g></g></svg>